<?xml version="1.0" encoding="UTF-8"?>
<!DOCTYPE svg PUBLIC "-//W3C//DTD SVG 1.1//EN" "http://www.w3.org/Graphics/SVG/1.1/DTD/svg11.dtd">
<!-- Creator: CorelDRAW 2017 -->
<svg xmlns="http://www.w3.org/2000/svg" xml:space="preserve" width="53px" height="53px" version="1.1" style="shape-rendering:geometricPrecision; text-rendering:geometricPrecision; image-rendering:optimizeQuality; fill-rule:evenodd; clip-rule:evenodd"
viewBox="0 0 2.52 2.52"
 xmlns:xlink="http://www.w3.org/1999/xlink">
 <defs>
  <style type="text/css">
   <![CDATA[
    .fil0 {fill: black}
   ]]>
  </style>
 </defs>
 <g id="Слой_x0020_1">
  <metadata id="CorelCorpID_0Corel-Layer"/>
  <path class="fil0" d="M2.52 1.26c0,-0.69 -0.56,-1.26 -1.26,-1.26 -0.69,0 -1.26,0.57 -1.26,1.26 0,0.37 0.16,0.7 0.41,0.93l0 0 0.04 0.04c0,0 0,0 0.01,0 0.02,0.02 0.04,0.04 0.06,0.05 0.01,0.01 0.02,0.02 0.03,0.02 0.02,0.02 0.05,0.03 0.07,0.05 0.01,0 0.01,0.01 0.02,0.01 0.03,0.01 0.06,0.03 0.09,0.04 0,0 0,0.01 0,0.01 0.1,0.04 0.2,0.07 0.31,0.09 0,0 0,0 0.01,0 0.03,0.01 0.06,0.01 0.1,0.02 0,0 0,0 0.01,0 0.03,0 0.07,0 0.1,0 0.04,0 0.07,0 0.1,0 0.01,0 0.01,0 0.02,0 0.03,0 0.06,-0.01 0.1,-0.02 0,0 0,0 0.01,0 0.1,-0.02 0.2,-0.05 0.3,-0.09 0,0 0,0 0.01,-0.01 0.02,-0.01 0.05,-0.02 0.08,-0.04 0.01,0 0.01,-0.01 0.02,-0.01 0.02,-0.01 0.05,-0.03 0.07,-0.05 0.01,0 0.02,-0.01 0.03,-0.01 0.02,-0.02 0.04,-0.03 0.06,-0.05 0,0 0.01,-0.01 0.01,-0.01l0.04 -0.03 0 -0.01c0.25,-0.23 0.41,-0.56 0.41,-0.93zm-2.43 0c0,-0.64 0.53,-1.17 1.17,-1.17 0.65,0 1.17,0.53 1.17,1.17 0,0.35 -0.15,0.66 -0.39,0.88 -0.02,-0.01 -0.03,-0.02 -0.04,-0.03l-0.39 -0.19c-0.04,-0.02 -0.06,-0.05 -0.06,-0.09l0 -0.14c0.01,-0.01 0.02,-0.02 0.03,-0.04 0.05,-0.07 0.09,-0.15 0.12,-0.23 0.06,-0.03 0.1,-0.09 0.1,-0.15l0 -0.17c0,-0.04 -0.02,-0.07 -0.04,-0.1l0 -0.22c0,-0.02 0.01,-0.16 -0.09,-0.27 -0.09,-0.09 -0.22,-0.14 -0.41,-0.14 -0.18,0 -0.32,0.05 -0.41,0.14 -0.09,0.11 -0.08,0.25 -0.08,0.27l0 0.22c-0.03,0.03 -0.04,0.06 -0.04,0.1l0 0.17c0,0.05 0.02,0.09 0.06,0.13 0.04,0.14 0.11,0.25 0.14,0.29l0 0.13c0,0.04 -0.02,0.07 -0.05,0.09l-0.36 0.2c-0.02,0.01 -0.03,0.01 -0.04,0.02 -0.24,-0.21 -0.39,-0.52 -0.39,-0.87zm1.86 0.95c-0.02,0.01 -0.03,0.02 -0.05,0.03 -0.01,0.01 -0.02,0.01 -0.02,0.02 -0.03,0.01 -0.05,0.02 -0.07,0.03 0,0.01 -0.01,0.01 -0.01,0.01 -0.06,0.03 -0.11,0.05 -0.16,0.07 -0.01,0 -0.01,0 -0.01,0 -0.03,0.01 -0.06,0.02 -0.09,0.03 0,0 0,0 0,0 -0.03,0.01 -0.06,0.01 -0.09,0.02 0,0 0,0 0,0 -0.03,0 -0.06,0 -0.09,0.01 0,0 -0.01,0 -0.01,0 -0.03,0 -0.06,0 -0.09,0 -0.03,0 -0.06,0 -0.09,0 0,0 -0.01,0 -0.01,0 -0.03,-0.01 -0.06,-0.01 -0.09,-0.01l0 0c-0.06,-0.01 -0.12,-0.03 -0.18,-0.05 0,0 0,0 0,0 -0.03,-0.01 -0.06,-0.02 -0.09,-0.03 0,0 0,0 0,0 -0.03,-0.02 -0.05,-0.03 -0.08,-0.04 0,0 -0.01,0 -0.01,-0.01 -0.02,-0.01 -0.05,-0.02 -0.07,-0.04 0,0 -0.01,-0.01 -0.02,-0.01 -0.02,-0.01 -0.04,-0.03 -0.06,-0.04 0,0 0,-0.01 -0.01,-0.01l0.01 0 0.36 -0.2c0.06,-0.03 0.1,-0.1 0.1,-0.17l0 -0.16 -0.01 -0.02c0,0 -0.1,-0.12 -0.14,-0.28l0 -0.02 -0.02 -0.01c-0.02,-0.01 -0.03,-0.04 -0.03,-0.06l0 -0.17c0,-0.02 0.01,-0.04 0.03,-0.05l0.01 -0.02 0 -0.25 0 -0.01c0,0 -0.01,-0.11 0.06,-0.2 0.07,-0.07 0.18,-0.11 0.34,-0.11 0.16,0 0.27,0.04 0.34,0.11 0.08,0.09 0.06,0.2 0.06,0.2l0 0.26 0.02 0.02c0.01,0.01 0.02,0.03 0.02,0.05l0 0.17c0,0.03 -0.02,0.06 -0.05,0.07l-0.02 0.01 -0.01 0.02c-0.03,0.08 -0.07,0.16 -0.11,0.23 -0.02,0.02 -0.03,0.03 -0.04,0.04l-0.01 0.02 0 0.17c0,0.07 0.04,0.14 0.11,0.17l0.39 0.19c0,0.01 0,0.01 0,0.01 0,0 -0.01,0 -0.01,0.01z"/>
 </g>
</svg>
