<?xml version="1.0" encoding="UTF-8"?>
<!DOCTYPE svg PUBLIC "-//W3C//DTD SVG 1.1//EN" "http://www.w3.org/Graphics/SVG/1.1/DTD/svg11.dtd">
<!-- Creator: CorelDRAW 2017 -->
<svg xmlns="http://www.w3.org/2000/svg" xml:space="preserve" width="53px" height="50px" version="1.1" style="shape-rendering:geometricPrecision; text-rendering:geometricPrecision; image-rendering:optimizeQuality; fill-rule:evenodd; clip-rule:evenodd"
viewBox="0 0 2.95 2.8"
 xmlns:xlink="http://www.w3.org/1999/xlink">
 <defs>
  <style type="text/css">
   <![CDATA[
    .fil0 {fill:black}
   ]]>
  </style>
 </defs>
 <g id="Слой_x0020_1">
  <metadata id="CorelCorpID_0Corel-Layer"/>
  <path class="fil0" d="M2.04 2.27c-0.14,0 -0.26,0.12 -0.26,0.26 0,0.15 0.12,0.27 0.26,0.27 0.15,0 0.27,-0.12 0.27,-0.27 0,-0.14 -0.12,-0.26 -0.27,-0.26zm-1.14 -0.62l1.74 0 0.31 -1.09 -0.46 0 -0.16 -0.5 -0.68 0.22 0.1 0.28 -0.03 0 -0.17 -0.5 -0.68 0.22 0.09 0.28 -0.36 0 -0.07 -0.3c-0.04,-0.15 -0.17,-0.26 -0.32,-0.26l-0.21 0 0 0.13 0.21 0c0.09,0 0.17,0.06 0.2,0.15l0.33 1.3c-0.07,0.05 -0.11,0.13 -0.11,0.23 0,0.15 0.12,0.27 0.27,0.27l1.7 0 0 -0.12 -1.7 0c-0.08,0 -0.15,-0.07 -0.15,-0.15 0,-0.09 0.07,-0.16 0.15,-0.16zm1.35 -1.44l0.11 0.34 -0.49 0 -0.06 -0.19 0.44 -0.15zm-0.78 0l0.11 0.34 -0.49 0 -0.07 -0.19 0.45 -0.15zm1.31 0.47l-0.23 0.85 -1.7 0 -0.22 -0.85 2.15 0zm-1.7 1.59c-0.15,0 -0.27,0.12 -0.27,0.26 0,0.15 0.12,0.27 0.27,0.27 0.14,0 0.26,-0.12 0.26,-0.27 0,-0.14 -0.12,-0.26 -0.26,-0.26zm0 0.41c-0.08,0 -0.15,-0.07 -0.15,-0.15 0,-0.08 0.07,-0.14 0.15,-0.14 0.07,0 0.14,0.06 0.14,0.14 0,0.08 -0.07,0.15 -0.14,0.15zm0.96 0c-0.08,0 -0.14,-0.07 -0.14,-0.15 0,-0.08 0.07,-0.14 0.14,-0.14 0.09,0 0.15,0.06 0.15,0.14 0,0.08 -0.07,0.15 -0.15,0.15z"/>
 </g>
</svg>
