<?xml version="1.0" encoding="UTF-8"?>
<!DOCTYPE svg PUBLIC "-//W3C//DTD SVG 1.1//EN" "http://www.w3.org/Graphics/SVG/1.1/DTD/svg11.dtd">
<!-- Creator: CorelDRAW 2017 -->
<svg xmlns="http://www.w3.org/2000/svg" xml:space="preserve" width="54px" height="54px" version="1.1" style="shape-rendering:geometricPrecision; text-rendering:geometricPrecision; image-rendering:optimizeQuality; fill-rule:evenodd; clip-rule:evenodd"
viewBox="0 0 2.33 2.32"
 xmlns:xlink="http://www.w3.org/1999/xlink">
 <defs>
  <style type="text/css">
   <![CDATA[
    .fil0 {fill:#A71C49}
   ]]>
  </style>
 </defs>
 <g id="Слой_x0020_1">
  <metadata id="CorelCorpID_0Corel-Layer"/>
  <g id="_2169734627392">
   <path class="fil0" d="M1.72 1.78l-0.57 -0.3c0.02,0.04 0.06,0.07 0.11,0.11 0.03,0.02 0.06,0.03 0.08,0.06 0.03,0.02 0.06,0.05 0.05,0.08 0,0.05 -0.05,0.07 -0.11,0.09 -0.06,0.02 -0.28,0.09 -0.38,0.11l-0.04 0.01c-0.1,0.03 -0.22,0.06 -0.33,0.08 -0.07,0 -0.14,0.05 -0.2,0.08 -0.05,0.03 -0.14,0.07 -0.14,0.07l-0.01 0c-0.02,0 -0.04,0 -0.07,-0.01l-0.09 0.16 1.7 -0.54z"/>
   <path class="fil0" d="M2.28 0.09c-0.06,-0.1 -0.19,-0.12 -0.28,-0.05l-0.59 0.41c-0.08,0.06 -0.11,0.17 -0.06,0.26l-0.16 0.12c-0.01,0.01 -0.02,0.02 -0.02,0.03l0 0.47 -0.07 0.06c0.02,0.02 0.04,0.04 0.04,0.07 0.01,0 0.01,0.01 0.01,0.01l0.1 -0.09c0.01,0 0.01,-0.02 0.01,-0.03l0 -0.46 0.15 -0.1c0.07,0.06 0.17,0.06 0.25,0.01l0.58 -0.42c0.09,-0.06 0.12,-0.19 0.05,-0.28l-0.01 -0.01z"/>
   <path class="fil0" d="M0.59 1.29c-0.06,0.03 -0.1,0.11 -0.1,0.15 0,0.01 0,0.01 0,0.02 -0.01,0.03 -0.03,0.05 -0.05,0.08 -0.03,0.03 -0.07,0.05 -0.1,0.06 -0.19,0.09 -0.28,0.17 -0.32,0.28 -0.01,0.04 -0.02,0.1 -0.02,0.14l0 0c0,0.02 0,0.04 0.01,0.05 0.02,0.03 0.04,0.04 0.08,0.05 0.01,0 0.03,0 0.04,0l0.01 0c0.01,0 0.04,-0.01 0.04,-0.01 0,0 0.05,-0.02 0.09,-0.05 0.06,-0.03 0.13,-0.08 0.21,-0.09 0.11,-0.01 0.23,-0.05 0.32,-0.07l0.04 -0.01c0.1,-0.03 0.32,-0.1 0.38,-0.12 0.03,-0.01 0.08,-0.03 0.08,-0.04 0,-0.01 0,-0.02 -0.03,-0.05 -0.03,-0.02 -0.06,-0.04 -0.08,-0.05 -0.07,-0.05 -0.12,-0.09 -0.14,-0.16 0,-0.02 -0.01,-0.03 -0.03,-0.04 -0.01,-0.01 -0.02,-0.01 -0.04,-0.02 0,0 0,0 0,0 -0.04,-0.01 -0.08,-0.03 -0.12,-0.06 0,0 0,0 0,0 -0.04,-0.04 -0.09,-0.07 -0.14,-0.08 -0.01,0 -0.03,0 -0.04,0 -0.03,0 -0.06,0 -0.08,0.02 -0.01,0 -0.01,0 -0.01,0z"/>
  </g>
 </g>
</svg>
