<?xml version="1.0" encoding="UTF-8"?>
<!DOCTYPE svg PUBLIC "-//W3C//DTD SVG 1.1//EN" "http://www.w3.org/Graphics/SVG/1.1/DTD/svg11.dtd">
<!-- Creator: CorelDRAW 2017 -->
<svg xmlns="http://www.w3.org/2000/svg" xml:space="preserve" width="50px" height="54px" version="1.1" style="shape-rendering:geometricPrecision; text-rendering:geometricPrecision; image-rendering:optimizeQuality; fill-rule:evenodd; clip-rule:evenodd"
viewBox="0 0 2.02 2.16"
 xmlns:xlink="http://www.w3.org/1999/xlink">
 <defs>
  <style type="text/css">
   <![CDATA[
    .fil0 {fill:#A71C49}
   ]]>
  </style>
 </defs>
 <g id="Слой_x0020_1">
  <metadata id="CorelCorpID_0Corel-Layer"/>
  <path class="fil0" d="M1.84 0.26l0 -0.15c0,-0.06 -0.05,-0.11 -0.11,-0.11l-1.55 0c-0.06,0 -0.11,0.05 -0.11,0.11l0 0.14 -0.03 0c-0.03,0 -0.04,0.02 -0.04,0.04 0,0.02 0.01,0.03 0.04,0.03l0.03 0 0 0.15c0,0.06 0.05,0.11 0.11,0.11l1.55 0c0.06,0 0.11,-0.05 0.11,-0.11l0 -0.14c0.06,0.01 0.11,0.07 0.11,0.14l0 0.14c0,0.07 -0.05,0.13 -0.12,0.15 -0.03,0 -0.49,0.04 -0.79,0.07 -0.07,0 -0.14,0.06 -0.14,0.14l0 0.22 -0.22 0c-0.01,0 -0.02,0.01 -0.02,0.01 -0.01,0.01 -0.02,0.02 -0.01,0.03l0.03 0.18c0.01,0.02 0.02,0.03 0.04,0.03l0.04 0 0 0.54c0,0.1 0.08,0.18 0.18,0.18 0.1,0 0.18,-0.08 0.18,-0.18l0 -0.54 0.03 0c0.02,0 0.04,-0.01 0.04,-0.03l0.04 -0.18c0,-0.01 0,-0.02 -0.01,-0.03 -0.01,-0.01 -0.02,-0.01 -0.03,-0.01l-0.22 0 0 -0.22c0,-0.04 0.04,-0.07 0.08,-0.07 0.12,-0.01 0.76,-0.06 0.79,-0.07 0.11,-0.02 0.18,-0.11 0.18,-0.22l0 -0.14c0,-0.11 -0.08,-0.2 -0.18,-0.21zm-0.11 0.24l-1.55 0c-0.02,0 -0.04,-0.01 -0.04,-0.03l0 -0.04 0.36 0c0.03,0 0.04,-0.01 0.04,-0.03 0,-0.03 -0.01,-0.04 -0.04,-0.04l-0.36 0 0 -0.14 0.72 0c0.03,0 0.04,-0.02 0.04,-0.04 0,-0.02 -0.01,-0.04 -0.04,-0.04l-0.72 0 0 -0.03c0,-0.02 0.02,-0.04 0.04,-0.04l1.55 0c0.02,0 0.04,0.02 0.04,0.04l0 0.03 -0.26 0c-0.02,0 -0.03,0.02 -0.03,0.04 0,0.02 0.01,0.04 0.03,0.04l0.26 0 0 0.14 -0.62 0c-0.02,0 -0.03,0.01 -0.03,0.04 0,0.02 0.01,0.03 0.03,0.03l0.62 0 0 0.04c0,0.02 -0.02,0.03 -0.04,0.03zm-0.61 0.87l-0.04 0c-0.02,0 -0.04,0.01 -0.04,0.04l0 0.57c0,0.06 -0.04,0.11 -0.1,0.11 -0.06,0 -0.11,-0.05 -0.11,-0.11l0.07 0c0.02,0 0.04,-0.01 0.04,-0.03 0,-0.03 -0.02,-0.04 -0.04,-0.04l-0.07 0 0 -0.07 0.07 0c0.02,0 0.04,-0.02 0.04,-0.04 0,-0.02 -0.02,-0.03 -0.04,-0.03l-0.07 0 0 -0.36c0,-0.03 -0.02,-0.04 -0.04,-0.04l-0.04 0 -0.02 -0.11 0.42 0 -0.03 0.11z"/>
 </g>
</svg>
