<?xml version="1.0" encoding="UTF-8"?>
<!DOCTYPE svg PUBLIC "-//W3C//DTD SVG 1.1//EN" "http://www.w3.org/Graphics/SVG/1.1/DTD/svg11.dtd">
<!-- Creator: CorelDRAW 2017 -->
<svg xmlns="http://www.w3.org/2000/svg" xml:space="preserve" width="43px" height="42px" version="1.1" style="shape-rendering:geometricPrecision; text-rendering:geometricPrecision; image-rendering:optimizeQuality; fill-rule:evenodd; clip-rule:evenodd"
viewBox="0 0 1.49 1.44"
 xmlns:xlink="http://www.w3.org/1999/xlink">
 <defs>
  <style type="text/css">
   <![CDATA[
    .fil0 {fill:#A71C49}
   ]]>
  </style>
 </defs>
 <g id="Слой_x0020_1">
  <metadata id="CorelCorpID_0Corel-Layer"/>
  <g id="_2169726534336">
   <path class="fil0" d="M1.39 0.3l0 -0.1 0.08 0 0 -0.2 -1.05 0c-0.01,0 -0.02,0.01 -0.02,0.02 0,0.02 0.01,0.03 0.02,0.03l0.5 0 0 0.15 0.08 0 0 0.1 -1 0 0 0.3 0.05 0 0 0.1 0.02 0 0 0.07 0.25 0 0 -0.07 0.03 0 0 -0.1 0.57 0 0 0.84 0.57 0 0 -1.14 -0.1 0zm-0.42 -0.15l0 -0.1 0.45 0 0 0.1 -0.45 0zm0.08 0.05l0.29 0 0 0.1 -0.29 0 0 -0.1zm-0.78 0.52l-0.15 0 0 -0.02 0.15 0 0 0.02zm0.03 -0.07l-0.2 0 0 -0.05 0.2 0 0 0.05zm0.05 -0.1l-0.3 0 0 -0.2 0.87 0 0 0.2 -0.57 0zm1.09 0.84l-0.47 0 0 -0.12 0.47 0 0 0.12zm-0.47 -0.17l0 -0.87 0.47 0 0 0.87 -0.47 0z"/>
   <path class="fil0" d="M0.12 1.02c-0.01,0 -0.02,0.01 -0.02,0.03l0 0.02c0,0.01 0.01,0.03 0.02,0.03 0.02,0 0.03,-0.02 0.03,-0.03l0 -0.02c0,-0.02 -0.01,-0.03 -0.03,-0.03z"/>
   <path class="fil0" d="M0.12 0.92c-0.01,0 -0.02,0.01 -0.02,0.03l0 0.02c0,0.01 0.01,0.03 0.02,0.03 0.02,0 0.03,-0.02 0.03,-0.03l0 -0.02c0,-0.02 -0.01,-0.03 -0.03,-0.03z"/>
   <path class="fil0" d="M0.12 0.82c-0.01,0 -0.02,0.01 -0.02,0.03l0 0.02c0,0.01 0.01,0.03 0.02,0.03 0.02,0 0.03,-0.02 0.03,-0.03l0 -0.02c0,-0.02 -0.01,-0.03 -0.03,-0.03z"/>
   <path class="fil0" d="M0.12 1.12c-0.01,0 -0.02,0.01 -0.02,0.03l0 0.02c0,0.01 0.01,0.02 0.02,0.02 0.02,0 0.03,-0.01 0.03,-0.02l0 -0.02c0,-0.02 -0.01,-0.03 -0.03,-0.03z"/>
   <path class="fil0" d="M0.12 1.32c-0.01,0 -0.02,0.01 -0.02,0.02l0 0.03c0,0.01 0.01,0.02 0.02,0.02 0.02,0 0.03,-0.01 0.03,-0.02l0 -0.03c0,-0.01 -0.01,-0.02 -0.03,-0.02z"/>
   <path class="fil0" d="M0.12 1.22c-0.01,0 -0.02,0.01 -0.02,0.02l0 0.03c0,0.01 0.01,0.02 0.02,0.02 0.02,0 0.03,-0.01 0.03,-0.02l0 -0.03c0,-0.01 -0.01,-0.02 -0.03,-0.02z"/>
   <path class="fil0" d="M0.2 1.22c-0.01,0 -0.03,0.01 -0.03,0.02l0 0.03c0,0.01 0.02,0.02 0.03,0.02 0.01,0 0.02,-0.01 0.02,-0.02l0 -0.03c0,-0.01 -0.01,-0.02 -0.02,-0.02z"/>
   <path class="fil0" d="M0.2 1.12c-0.01,0 -0.03,0.01 -0.03,0.03l0 0.02c0,0.01 0.02,0.02 0.03,0.02 0.01,0 0.02,-0.01 0.02,-0.02l0 -0.02c0,-0.02 -0.01,-0.03 -0.02,-0.03z"/>
   <path class="fil0" d="M0.2 1.32c-0.01,0 -0.03,0.01 -0.03,0.02l0 0.03c0,0.01 0.02,0.02 0.03,0.02 0.01,0 0.02,-0.01 0.02,-0.02l0 -0.03c0,-0.01 -0.01,-0.02 -0.02,-0.02z"/>
   <path class="fil0" d="M0.2 0.82c-0.01,0 -0.03,0.01 -0.03,0.03l0 0.02c0,0.01 0.02,0.03 0.03,0.03 0.01,0 0.02,-0.02 0.02,-0.03l0 -0.02c0,-0.02 -0.01,-0.03 -0.02,-0.03z"/>
   <path class="fil0" d="M0.2 0.92c-0.01,0 -0.03,0.01 -0.03,0.03l0 0.02c0,0.01 0.02,0.03 0.03,0.03 0.01,0 0.02,-0.02 0.02,-0.03l0 -0.02c0,-0.02 -0.01,-0.03 -0.02,-0.03z"/>
   <path class="fil0" d="M0.2 1.02c-0.01,0 -0.03,0.01 -0.03,0.03l0 0.02c0,0.01 0.02,0.03 0.03,0.03 0.01,0 0.02,-0.02 0.02,-0.03l0 -0.02c0,-0.02 -0.01,-0.03 -0.02,-0.03z"/>
   <path class="fil0" d="M0.27 1.12c-0.01,0 -0.02,0.01 -0.02,0.03l0 0.02c0,0.01 0.01,0.02 0.02,0.02 0.02,0 0.03,-0.01 0.03,-0.02l0 -0.02c0,-0.02 -0.01,-0.03 -0.03,-0.03z"/>
   <path class="fil0" d="M0.27 0.92c-0.01,0 -0.02,0.01 -0.02,0.03l0 0.02c0,0.01 0.01,0.03 0.02,0.03 0.02,0 0.03,-0.02 0.03,-0.03l0 -0.02c0,-0.02 -0.01,-0.03 -0.03,-0.03z"/>
   <path class="fil0" d="M0.27 1.32c-0.01,0 -0.02,0.01 -0.02,0.02l0 0.03c0,0.01 0.01,0.02 0.02,0.02 0.02,0 0.03,-0.01 0.03,-0.02l0 -0.03c0,-0.01 -0.01,-0.02 -0.03,-0.02z"/>
   <path class="fil0" d="M0.27 0.82c-0.01,0 -0.02,0.01 -0.02,0.03l0 0.02c0,0.01 0.01,0.03 0.02,0.03 0.02,0 0.03,-0.02 0.03,-0.03l0 -0.02c0,-0.02 -0.01,-0.03 -0.03,-0.03z"/>
   <path class="fil0" d="M0.27 1.22c-0.01,0 -0.02,0.01 -0.02,0.02l0 0.03c0,0.01 0.01,0.02 0.02,0.02 0.02,0 0.03,-0.01 0.03,-0.02l0 -0.03c0,-0.01 -0.01,-0.02 -0.03,-0.02z"/>
   <path class="fil0" d="M0.27 1.02c-0.01,0 -0.02,0.01 -0.02,0.03l0 0.02c0,0.01 0.01,0.03 0.02,0.03 0.02,0 0.03,-0.02 0.03,-0.03l0 -0.02c0,-0.02 -0.01,-0.03 -0.03,-0.03z"/>
  </g>
 </g>
</svg>
