<?xml version="1.0" encoding="UTF-8"?>
<!DOCTYPE svg PUBLIC "-//W3C//DTD SVG 1.1//EN" "http://www.w3.org/Graphics/SVG/1.1/DTD/svg11.dtd">
<!-- Creator: CorelDRAW 2017 -->
<svg xmlns="http://www.w3.org/2000/svg" xml:space="preserve" width="56px" height="39px" version="1.1" style="shape-rendering:geometricPrecision; text-rendering:geometricPrecision; image-rendering:optimizeQuality; fill-rule:evenodd; clip-rule:evenodd"
viewBox="0 0 2.53 1.74"
 xmlns:xlink="http://www.w3.org/1999/xlink">
 <defs>
  <style type="text/css">
   <![CDATA[
    .fil0 {fill:#E6D8BB}
   ]]>
  </style>
 </defs>
 <g id="Слой_x0020_1">
  <metadata id="CorelCorpID_0Corel-Layer"/>
  <path class="fil0" d="M2.53 1.52c0,0 0,0 0,0 0,0 0,0 0,0 0,0 0,0 0,0 0,0 0,0 0,0 0,0 0,0 0,-0.01l-0.37 -1.47c-0.01,-0.02 -0.03,-0.04 -0.05,-0.04l-1.69 0c-0.02,0 -0.04,0.02 -0.05,0.04l-0.37 1.47c0,0.01 0,0.01 0,0.01 0,0 0,0 0,0 0,0 0,0 0,0 0,0 0,0 0,0 0,0 0,0 0,0 0,0 0,0.01 0,0.01l0 0.15c0,0.02 0.01,0.04 0.02,0.05 0.02,0.01 0.03,0.01 0.05,0l0.28 -0.09 0.29 0.09c0.01,0.01 0.02,0.01 0.04,0l0.28 -0.09 0.29 0.09c0.01,0.01 0.02,0.01 0.03,0l0.29 -0.09 0.28 0.09c0.01,0.01 0.03,0.01 0.04,0l0.28 -0.09 0.29 0.09c0,0.01 0.01,0.01 0.01,0.01 0.02,0 0.03,-0.01 0.03,-0.01 0.02,-0.01 0.03,-0.03 0.03,-0.05l0 -0.15c0,0 0,0 0,0 0,0 0,-0.01 0,-0.01zm-0.13 -0.07l-0.21 -0.08c-0.01,0 -0.02,0 -0.04,0l-0.24 0.09 -0.05 -0.42 0.22 -0.08 0.22 0.08 0.1 0.41zm-0.22 -0.88l0.09 0.35 -0.18 -0.06c-0.01,-0.01 -0.02,-0.01 -0.03,0l-0.21 0.07 -0.05 -0.37 0.18 -0.06 0.2 0.07zm-0.12 -0.46l0.09 0.34 -0.15 -0.06c-0.01,0 -0.02,0 -0.04,0l-0.17 0.07 -0.05 -0.35 0.32 0zm-0.74 0l0.32 0 0.04 0.34 -0.16 -0.06c-0.01,0 -0.02,0 -0.03,0l-0.17 0.06 0 -0.34zm0 0.45l0.18 -0.06 0.2 0.07 0.04 0.35 -0.19 -0.06c-0.01,-0.01 -0.02,-0.01 -0.03,0l-0.2 0.07 0 -0.37zm0 0.48l0.21 -0.08 0.23 0.08 0.05 0.41 -0.23 -0.08c-0.01,0 -0.02,0 -0.03,0l-0.23 0.08 0 -0.41zm-0.43 -0.93l0.32 0 0 0.34 -0.17 -0.06c-0.01,0 -0.02,0 -0.03,0l-0.16 0.06 0.04 -0.34zm0.32 0.93l0 0.41 -0.23 -0.08c-0.01,0 -0.03,0 -0.04,0l-0.22 0.08 0.05 -0.41 0.22 -0.08 0.22 0.08zm-0.38 -0.47l0.19 -0.07 0.19 0.06 0 0.37 -0.2 -0.07c-0.01,-0.01 -0.02,-0.01 -0.03,0l-0.19 0.06 0.04 -0.35zm-0.37 -0.46l0.32 0 -0.04 0.35 -0.18 -0.07c-0.01,0 -0.02,0 -0.03,0l-0.15 0.06 0.08 -0.34zm-0.11 0.46l0.2 -0.07 0.18 0.06 -0.05 0.37 -0.21 -0.07c-0.01,-0.01 -0.03,-0.01 -0.04,0l-0.17 0.06 0.09 -0.35zm-0.12 0.47l0.22 -0.08 0.22 0.08 -0.06 0.42 -0.24 -0.09c0,0 -0.01,0 -0.02,0 0,0 -0.01,0 -0.01,0l-0.21 0.07 0.1 -0.4zm2.19 0.57l-0.23 -0.08c-0.01,0 -0.02,0 -0.04,0l-0.28 0.1 -0.29 -0.1c-0.01,0 -0.02,0 -0.03,0l-0.29 0.1 -0.28 -0.1c-0.01,0 -0.03,0 -0.04,0l-0.28 0.1 -0.29 -0.1c0,0 -0.01,0 -0.02,0 0,0 -0.01,0 -0.01,0l-0.23 0.08 0 -0.05 0.24 -0.08 0.29 0.1 0 0c0,0 0,0 0,0 0,0 0,0 0.01,0 0,0 0,0 0,0 0,0 0,0 0,0 0,0 0,0 0,0 0,0 0,0 0,0 0,0 0,0 0,0 0.01,0 0.01,0 0.01,0 0,0 0,0 0,0 0,0 0,0 0,0 0,0 0,0 0.01,0 0,0 0,0 0,0 0,0 0,0 0,0 0,0 0,0 0,0 0,0 0,0 0,0 0,0 0,0 0.01,0l0.28 -0.1 0.29 0.1c0,0 0,0 0,0 0,0 0,0 0,0 0,0 0,0 0,0 0,0 0,0 0,0 0,0 0.01,0 0.01,0 0,0 0,0 0,0 0,0 0,0 0,0 0.01,0 0.01,0 0.01,0 0,0 0,0 0,0 0,0 0,0 0,0 0,0 0,0 0.01,0 0,0 0,0 0,0 0,0 0,0 0,0 0,0 0,0 0,0l0.29 -0.1 0.28 0.1c0,0 0,0 0,0 0,0 0,0 0.01,0 0,0 0,0 0,0 0,0 0,0 0,0 0,0 0,0 0,0 0,0 0,0 0,0 0.01,0 0.01,0 0.01,0 0,0 0,0 0,0 0,0 0,0 0,0 0,0 0,0 0,0 0,0 0.01,0 0.01,0 0,0 0,0 0,0 0,0 0,0 0,0 0,0 0,0 0,0 0,0 0,0 0,0 0.01,0 0.01,0 0.01,0l0.28 -0.1 0.25 0.08 0 0.05z"/>
 </g>
</svg>
