<?xml version="1.0" encoding="UTF-8"?>
<!DOCTYPE svg PUBLIC "-//W3C//DTD SVG 1.1//EN" "http://www.w3.org/Graphics/SVG/1.1/DTD/svg11.dtd">
<!-- Creator: CorelDRAW 2017 -->
<svg xmlns="http://www.w3.org/2000/svg" xml:space="preserve" width="65px" height="51px" version="1.1" style="shape-rendering:geometricPrecision; text-rendering:geometricPrecision; image-rendering:optimizeQuality; fill-rule:evenodd; clip-rule:evenodd"
viewBox="0 0 3.35 2.61"
 xmlns:xlink="http://www.w3.org/1999/xlink">
 <defs>
  <style type="text/css">
   <![CDATA[
    .fil0 {fill:#A71C49}
   ]]>
  </style>
 </defs>
 <g id="Слой_x0020_1">
  <metadata id="CorelCorpID_0Corel-Layer"/>
  <g id="_2169726556896">
   <path class="fil0" d="M2.62 2.29c-0.01,-0.02 -0.05,-0.04 -0.07,-0.03l-0.48 0.2c-0.1,0.04 -0.2,0.05 -0.3,0.01l-1.12 -0.36c-0.07,-0.03 -0.15,-0.02 -0.21,0.01l-0.05 0.02c-0.03,0.01 -0.04,0.04 -0.03,0.07 0.01,0.03 0.05,0.04 0.07,0.03l0.05 -0.02c0.04,-0.02 0.09,-0.02 0.14,-0.01l1.11 0.37c0.06,0.02 0.12,0.03 0.17,0.03 0.07,0 0.14,-0.02 0.21,-0.05l0.48 -0.19c0.03,-0.02 0.04,-0.05 0.03,-0.08z"/>
   <path class="fil0" d="M3.32 1.78l0 0c-0.05,-0.12 -0.17,-0.18 -0.29,-0.15 0.02,-0.05 0.02,-0.1 0,-0.15 -0.03,-0.06 -0.07,-0.1 -0.12,-0.12 0,0 0,0 0,0 -0.05,-0.02 -0.1,-0.02 -0.14,-0.01l0 -0.35c0,-0.03 -0.03,-0.06 -0.06,-0.06 -0.03,0 -0.05,0.03 -0.05,0.06l0 0.75 -0.48 0.17c-0.05,0.02 -0.11,0.02 -0.16,0l-0.56 -0.2 0 -0.21 0.54 0.18c0.1,0.04 0.23,-0.02 0.27,-0.12l0.07 0c0.03,0 0.06,-0.02 0.06,-0.05l0 -0.64c0,-0.03 -0.03,-0.05 -0.06,-0.05l-0.57 0c-0.03,0 -0.05,0.02 -0.05,0.05l0 0.22 -0.26 -0.1 0 -0.41 0.6 -0.39 0.6 0.39 0 0.23c0,0.03 0.02,0.05 0.05,0.05 0.03,0 0.06,-0.02 0.06,-0.05l0 -0.15 0.15 0.1c0.01,0 0.02,0 0.03,0 0.02,0 0.03,0 0.04,-0.02 0.02,-0.02 0.01,-0.06 -0.01,-0.08l-0.3 -0.19 0 -0.43c0,-0.03 -0.02,-0.05 -0.05,-0.05l-0.33 0c-0.03,0 -0.05,0.02 -0.05,0.05l0 0.14 -0.16 -0.1c-0.02,-0.02 -0.04,-0.02 -0.06,0l-0.89 0.58c-0.03,0.02 -0.04,0.06 -0.02,0.08 0.02,0.03 0.05,0.03 0.08,0.02l0.15 -0.1 0 0.29 -0.19 -0.07c0,0 -0.01,-0.01 -0.02,-0.01 -0.19,-0.07 -0.42,-0.04 -0.59,0.08l-0.53 0.35c-0.02,0.02 -0.03,0.05 -0.01,0.08 0.02,0.02 0.05,0.03 0.07,0.01l0.53 -0.35c0.15,-0.1 0.33,-0.12 0.49,-0.07 0.01,0.01 0.02,0.01 0.02,0.01l0.99 0.38c0.03,0.01 0.05,0.03 0.06,0.06 0.02,0.03 0.02,0.06 0,0.09 -0.02,0.06 -0.08,0.09 -0.14,0.07l-0.63 -0.22c-0.05,-0.01 -0.1,-0.01 -0.15,0.01 -0.06,0.02 -0.1,0.08 -0.12,0.14 -0.03,0.11 0.03,0.22 0.14,0.25l0.71 0.25c0.08,0.03 0.16,0.03 0.24,0l0.82 -0.28c0.07,-0.03 0.15,0.01 0.18,0.08l0 0c0.02,0.04 0.02,0.08 0.01,0.11 -0.02,0.04 -0.05,0.07 -0.09,0.08l-0.43 0.19c-0.03,0.01 -0.05,0.04 -0.03,0.07 0,0.02 0.03,0.03 0.05,0.03 0,0 0.01,0 0.02,0l0.44 -0.18c0.06,-0.03 0.11,-0.08 0.14,-0.15 0.02,-0.06 0.02,-0.13 -0.01,-0.19zm-0.97 -1.67l0.22 0 0 0.3 -0.22 -0.15 0 -0.15zm-0.2 1.16l-0.32 -0.13 0 -0.2 0.46 0 0 0.48c-0.01,-0.01 -0.01,-0.02 -0.02,-0.03 -0.02,-0.06 -0.06,-0.1 -0.12,-0.12zm-0.8 0.42l-0.05 -0.02c-0.05,-0.02 -0.08,-0.07 -0.06,-0.12 0,-0.03 0.03,-0.06 0.06,-0.07 0.01,-0.01 0.03,-0.01 0.05,-0.01l0 0.22zm1.58 -0.09l-0.03 0.07 -0.13 0.05 0 -0.25c0.03,-0.02 0.06,-0.02 0.1,-0.01 0,0 0,0 0,0 0.02,0.01 0.04,0.03 0.06,0.06 0.01,0.03 0.01,0.06 0,0.08z"/>
  </g>
 </g>
</svg>
