<?xml version="1.0" encoding="UTF-8"?>
<!DOCTYPE svg PUBLIC "-//W3C//DTD SVG 1.1//EN" "http://www.w3.org/Graphics/SVG/1.1/DTD/svg11.dtd">
<!-- Creator: CorelDRAW 2017 -->
<svg xmlns="http://www.w3.org/2000/svg" xml:space="preserve" width="43px" height="51px" version="1.1" style="shape-rendering:geometricPrecision; text-rendering:geometricPrecision; image-rendering:optimizeQuality; fill-rule:evenodd; clip-rule:evenodd"
viewBox="0 0 1.49 1.76"
 xmlns:xlink="http://www.w3.org/1999/xlink">
 <defs>
  <style type="text/css">
   <![CDATA[
    .fil0 {fill:#A71C49}
   ]]>
  </style>
 </defs>
 <g id="Слой_x0020_1">
  <metadata id="CorelCorpID_0Corel-Layer"/>
  <g id="_2169726574688">
   <path class="fil0" d="M1.48 1.28l-0.11 -0.12 0.11 -0.11c0.02,-0.01 0.02,-0.04 0,-0.05l-0.12 -0.12 0.12 -0.11c0.01,-0.02 0.01,-0.04 0,-0.05l-0.71 -0.71c-0.01,-0.01 -0.03,-0.01 -0.05,0l-0.71 0.71c0,0.01 -0.01,0.02 -0.01,0.02 0,0.01 0.01,0.02 0.01,0.03l0.12 0.11 -0.12 0.12c-0.01,0.01 -0.01,0.03 0,0.05l0.12 0.11 -0.12 0.12c-0.01,0.01 -0.01,0.01 -0.01,0.02 0,0.01 0,0.02 0.01,0.03l0.12 0.11 -0.12 0.12c-0.01,0.01 -0.01,0.04 0,0.05l0.14 0.14c0.01,0.01 0.02,0.01 0.03,0.01 0.01,0 0.01,0 0.02,-0.01l0.55 -0.55 0.54 0.55c0.01,0 0.01,0.01 0.02,0.01 0.01,0 0.02,-0.01 0.03,-0.01l0.14 -0.14c0.01,-0.02 0.01,-0.04 0,-0.05l-0.11 -0.12 0.11 -0.11c0.02,-0.02 0.02,-0.04 0,-0.05zm-0.07 -0.26l-0.09 0.09 -0.52 -0.52 0.09 -0.09 0.52 0.52zm-0.01 -0.28l-0.09 0.09 -0.51 -0.52 0.09 -0.09 0.51 0.52zm-1.31 0l0.66 -0.66 0.09 0.09 -0.66 0.66 -0.09 -0.09zm0 0.28l0.66 -0.66 0.09 0.09 -0.66 0.66 -0.09 -0.09zm-0.01 0.28l0.67 -0.66 0.09 0.09 -0.66 0.67 -0.1 -0.1zm0.1 0.37l-0.09 -0.09 0.66 -0.66 0.09 0.09 -0.66 0.66zm1.22 -0.09l-0.09 0.09 -0.51 -0.52 0.09 -0.09 0.51 0.52zm-0.08 -0.18l-0.52 -0.52 0.09 -0.1 0.52 0.52 -0.09 0.1z"/>
   <path class="fil0" d="M1.34 0.72l-0.16 -0.17c-0.02,-0.01 -0.04,-0.01 -0.05,0 -0.02,0.02 -0.02,0.04 0,0.05l0.16 0.17c0.01,0 0.02,0.01 0.03,0.01 0.01,0 0.02,-0.01 0.02,-0.01 0.02,-0.02 0.02,-0.04 0,-0.05z"/>
   <path class="fil0" d="M1.1 0.48l-0.02 -0.02c-0.01,-0.01 -0.03,-0.01 -0.05,0 -0.01,0.01 -0.01,0.04 0,0.05l0.02 0.02c0.01,0 0.02,0.01 0.03,0.01 0,0 0.01,-0.01 0.02,-0.01 0.01,-0.02 0.01,-0.04 0,-0.05z"/>
  </g>
 </g>
</svg>
