<?xml version="1.0" encoding="UTF-8"?>
<!DOCTYPE svg PUBLIC "-//W3C//DTD SVG 1.1//EN" "http://www.w3.org/Graphics/SVG/1.1/DTD/svg11.dtd">
<!-- Creator: CorelDRAW 2017 -->
<svg xmlns="http://www.w3.org/2000/svg" xml:space="preserve" width="43px" height="46px" version="1.1" style="shape-rendering:geometricPrecision; text-rendering:geometricPrecision; image-rendering:optimizeQuality; fill-rule:evenodd; clip-rule:evenodd"
viewBox="0 0 1.49 1.6"
 xmlns:xlink="http://www.w3.org/1999/xlink">
 <defs>
  <style type="text/css">
   <![CDATA[
    .fil0 {fill:#A71C49}
   ]]>
  </style>
 </defs>
 <g id="Слой_x0020_1">
  <metadata id="CorelCorpID_0Corel-Layer"/>
  <g id="_2169726538048">
   <path class="fil0" d="M1.47 1.55l-0.16 0 0 -1.52c0,-0.02 -0.01,-0.03 -0.03,-0.03l-1.07 0c-0.01,0 -0.02,0.01 -0.02,0.03l0 1.52 -0.16 0c-0.02,0 -0.03,0.01 -0.03,0.02 0,0.02 0.01,0.03 0.03,0.03l1.44 0c0.01,0 0.02,-0.01 0.02,-0.03 0,-0.01 -0.01,-0.02 -0.02,-0.02zm-1.12 0l0 -1.39 0.8 0 0 1.39 -0.8 0zm0.85 0l0 -1.42c0,-0.01 -0.01,-0.02 -0.03,-0.02l-0.85 0c-0.02,0 -0.03,0.01 -0.03,0.02l0 1.42 -0.05 0 0 -1.5 1.01 0 0 1.5 -0.05 0z"/>
   <path class="fil0" d="M1.07 0.77l-0.11 0c-0.02,0 -0.03,0.01 -0.03,0.03l0 0.03 -0.05 0c-0.02,0 -0.03,0.01 -0.03,0.02 0,0.02 0.01,0.03 0.03,0.03l0.05 0 0 0.03c0,0.01 0.01,0.02 0.03,0.02l0.11 0c0.01,0 0.02,-0.01 0.02,-0.02l0 -0.11c0,-0.02 -0.01,-0.03 -0.02,-0.03zm-0.03 0.11l-0.05 0 0 -0.05 0.05 0 0 0.05z"/>
  </g>
 </g>
</svg>
