<?xml version="1.0" encoding="UTF-8"?>
<!DOCTYPE svg PUBLIC "-//W3C//DTD SVG 1.1//EN" "http://www.w3.org/Graphics/SVG/1.1/DTD/svg11.dtd">
<!-- Creator: CorelDRAW 2017 -->
<svg xmlns="http://www.w3.org/2000/svg" xml:space="preserve" width="65px" height="46px" version="1.1" style="shape-rendering:geometricPrecision; text-rendering:geometricPrecision; image-rendering:optimizeQuality; fill-rule:evenodd; clip-rule:evenodd"
viewBox="0 0 3.35 2.39"
 xmlns:xlink="http://www.w3.org/1999/xlink">
 <defs>
  <style type="text/css">
   <![CDATA[
    .fil0 {fill:#A71C49}
   ]]>
  </style>
 </defs>
 <g id="Слой_x0020_1">
  <metadata id="CorelCorpID_0Corel-Layer"/>
  <g id="_2169726525824">
   <path class="fil0" d="M1.64 0.7c0.01,0.01 0.02,0.02 0.04,0.02 0.01,0 0.02,-0.01 0.03,-0.02l0.42 -0.3c0.01,-0.01 0.03,-0.03 0.03,-0.04 0,-0.02 -0.01,-0.04 -0.03,-0.05l-0.42 -0.3c-0.02,-0.01 -0.05,-0.01 -0.07,0l-0.42 0.3c-0.01,0.01 -0.02,0.03 -0.02,0.05 0,0.01 0.01,0.03 0.02,0.04l0.42 0.3zm0.04 -0.57l0.31 0.23 -0.31 0.22 -0.32 -0.22 0.32 -0.23z"/>
   <path class="fil0" d="M1.8 0.78c0,0.01 0.01,0.03 0.02,0.04l0.42 0.3c0.01,0.01 0.02,0.01 0.04,0.01 0.01,0 0.02,0 0.03,-0.01l0.42 -0.3c0.01,-0.01 0.02,-0.03 0.02,-0.04 0,-0.02 0,-0.04 -0.02,-0.05l-0.42 -0.3c-0.02,-0.01 -0.05,-0.01 -0.07,0l-0.42 0.3c-0.01,0.01 -0.02,0.03 -0.02,0.05zm0.48 -0.23l0.31 0.23 -0.31 0.22 -0.32 -0.22 0.32 -0.23z"/>
   <path class="fil0" d="M1.04 1.12c0.01,0.01 0.03,0.01 0.04,0.01 0.01,0 0.02,0 0.03,-0.01l0.42 -0.3c0.01,-0.01 0.03,-0.03 0.03,-0.04 0,-0.02 -0.01,-0.04 -0.03,-0.05l-0.42 -0.3c-0.02,-0.01 -0.05,-0.01 -0.07,0l-0.42 0.3c-0.01,0.01 -0.02,0.03 -0.02,0.05 0,0.01 0.01,0.03 0.02,0.04l0.42 0.3zm0.04 -0.57l0.32 0.23 -0.32 0.22 -0.32 -0.22 0.32 -0.23z"/>
   <path class="fil0" d="M1.71 0.85c-0.02,-0.01 -0.05,-0.01 -0.07,0l-0.42 0.3c-0.01,0.01 -0.02,0.03 -0.02,0.04 0,0.02 0.01,0.04 0.02,0.05l0.42 0.3c0.01,0.01 0.02,0.01 0.04,0.01 0.01,0 0.02,0 0.03,-0.01l0.42 -0.3c0.01,-0.01 0.03,-0.03 0.03,-0.05 0,-0.01 -0.01,-0.03 -0.03,-0.04l-0.42 -0.3zm-0.03 0.57l-0.32 -0.23 0.32 -0.22 0.31 0.22 -0.31 0.23z"/>
   <path class="fil0" d="M2.13 1.98l-0.42 -0.29c-0.02,-0.02 -0.05,-0.02 -0.07,0l-0.42 0.29c-0.01,0.02 -0.02,0.03 -0.02,0.05 0,0.02 0.01,0.04 0.02,0.05l0.42 0.3c0.01,0.01 0.02,0.01 0.04,0.01 0.01,0 0.02,0 0.03,-0.01l0.42 -0.3c0.01,-0.01 0.03,-0.03 0.03,-0.05 0,-0.02 -0.01,-0.03 -0.03,-0.05zm-0.45 0.28l-0.32 -0.23 0.32 -0.22 0.31 0.22 -0.31 0.23z"/>
   <path class="fil0" d="M3.33 1.15l-0.42 -0.3c-0.02,-0.01 -0.05,-0.01 -0.07,0l-0.42 0.3c-0.01,0.01 -0.02,0.03 -0.02,0.04 0,0.02 0.01,0.04 0.02,0.05l0.42 0.3c0.01,0.01 0.02,0.01 0.03,0.01 0.02,0 0.03,0 0.04,-0.01l0.42 -0.3c0.01,-0.01 0.02,-0.03 0.02,-0.05 0,-0.01 0,-0.03 -0.02,-0.04zm-0.46 0.27l-0.31 -0.23 0.31 -0.22 0.32 0.22 -0.32 0.23z"/>
   <path class="fil0" d="M2.73 1.57l-0.42 -0.3c-0.02,-0.02 -0.05,-0.02 -0.07,0l-0.42 0.3c-0.01,0.01 -0.02,0.03 -0.02,0.04 0,0.02 0.01,0.04 0.02,0.05l0.42 0.3c0.01,0.01 0.02,0.01 0.04,0.01 0.01,0 0.02,0 0.03,-0.01l0.42 -0.3c0.01,-0.01 0.02,-0.03 0.02,-0.05 0,-0.01 0,-0.03 -0.02,-0.04zm-0.45 0.27l-0.32 -0.23 0.32 -0.22 0.31 0.22 -0.31 0.23z"/>
   <path class="fil0" d="M0.96 1.19c0,-0.01 -0.01,-0.03 -0.03,-0.04l-0.42 -0.3c-0.02,-0.01 -0.05,-0.01 -0.07,0l-0.42 0.3c-0.01,0.01 -0.02,0.03 -0.02,0.04 0,0.02 0.01,0.04 0.02,0.05l0.42 0.3c0.02,0.01 0.03,0.01 0.04,0.01 0.01,0 0.02,0 0.03,-0.01l0.42 -0.3c0.02,-0.01 0.03,-0.03 0.03,-0.05zm-0.48 0.23l-0.32 -0.23 0.32 -0.22 0.32 0.22 -0.32 0.23z"/>
   <path class="fil0" d="M1.56 1.61c0,-0.01 -0.01,-0.03 -0.03,-0.04l-0.42 -0.3c-0.02,-0.02 -0.05,-0.02 -0.07,0l-0.42 0.3c-0.01,0.01 -0.02,0.03 -0.02,0.04 0,0.02 0.01,0.04 0.02,0.05l0.42 0.3c0.01,0.01 0.03,0.01 0.04,0.01 0.01,0 0.02,0 0.03,-0.01l0.42 -0.3c0.01,-0.01 0.03,-0.03 0.03,-0.05zm-0.48 0.23l-0.32 -0.23 0.32 -0.22 0.32 0.22 -0.32 0.23z"/>
  </g>
 </g>
</svg>
