<?xml version="1.0" encoding="UTF-8"?>
<!DOCTYPE svg PUBLIC "-//W3C//DTD SVG 1.1//EN" "http://www.w3.org/Graphics/SVG/1.1/DTD/svg11.dtd">
<!-- Creator: CorelDRAW 2017 -->
<svg xmlns="http://www.w3.org/2000/svg" xml:space="preserve" width="53px" height="53px" version="1.1" style="shape-rendering:geometricPrecision; text-rendering:geometricPrecision; image-rendering:optimizeQuality; fill-rule:evenodd; clip-rule:evenodd"
viewBox="0 0 4.14 4.14"
 xmlns:xlink="http://www.w3.org/1999/xlink">
 <defs>
  <style type="text/css">
   <![CDATA[
    .fil0 {fill:#a71c49;}
   ]]>
  </style>
 </defs>
 <g id="Слой_x0020_1">
  <metadata id="CorelCorpID_0Corel-Layer"/>
  <g id="_2196466449824">
   <polygon class="fil0" points="2.8,0.66 2.04,1.97 1.21,1.49 1.14,1.61 1.97,2.09 1.91,2.21 2.02,2.28 2.09,2.16 2.21,2.23 2.28,2.11 2.16,2.04 2.92,0.73 "/>
   <polygon class="fil0" points="0.21,2.07 0.48,2.07 0.48,2.21 0.21,2.21 "/>
   <polygon class="fil0" points="3.65,1.93 3.93,1.93 3.93,2.07 3.65,2.07 "/>
   <polygon class="fil0" points="1.93,0.21 2.07,0.21 2.07,0.48 1.93,0.48 "/>
   <polygon class="fil0" points="2.07,3.65 2.21,3.65 2.21,3.93 2.07,3.93 "/>
   <path class="fil0" d="M1.56 1.23c-0.02,0.01 -0.03,0.02 -0.03,0.03 0.01,-0.01 0.03,-0.03 0.03,-0.03z"/>
   <path class="fil0" d="M4.14 2.07c0,-1.14 -0.93,-2.07 -2.07,-2.07 -1.14,0 -2.07,0.93 -2.07,2.07 0,1.14 0.93,2.07 2.07,2.07 1.14,0 2.07,-0.93 2.07,-2.07zm-3.95 0c0,-1.04 0.84,-1.88 1.88,-1.88 1.04,0 1.88,0.84 1.88,1.88 0,1.04 -0.84,1.88 -1.88,1.88 -1.04,0 -1.88,-0.84 -1.88,-1.88z"/>
  </g>
 </g>
</svg>
