<?xml version="1.0" encoding="UTF-8"?>
<!DOCTYPE svg PUBLIC "-//W3C//DTD SVG 1.1//EN" "http://www.w3.org/Graphics/SVG/1.1/DTD/svg11.dtd">
<!-- Creator: CorelDRAW 2017 -->
<svg xmlns="http://www.w3.org/2000/svg" xml:space="preserve" width="71px" height="71px" version="1.1" style="shape-rendering:geometricPrecision; text-rendering:geometricPrecision; image-rendering:optimizeQuality; fill-rule:evenodd; clip-rule:evenodd"
viewBox="0 0 4.39 4.39"
 xmlns:xlink="http://www.w3.org/1999/xlink">
 <defs>
  <style type="text/css">
   <![CDATA[
    .fil0 {fill:#A71C49}
   ]]>
  </style>
 </defs>
 <g id="Слой_x0020_1">
  <metadata id="CorelCorpID_0Corel-Layer"/>
  <path class="fil0" d="M4.39 2.19c0,1.21 -0.99,2.2 -2.2,2.2 -1.21,0 -2.19,-0.99 -2.19,-2.2 0,-1.21 0.98,-2.19 2.19,-2.19 1.21,0 2.2,0.98 2.2,2.19zm-1.65 0.09l-0.39 0 0 1.43 -0.59 0 0 -1.43 -0.28 0 0 -0.51 0.28 0 0 -0.32c0,-0.23 0.11,-0.6 0.6,-0.6l0.44 0 0 0.49 -0.32 0c-0.05,0 -0.13,0.03 -0.13,0.14l0 0.3 0.45 0 -0.06 0.5z"/>
 </g>
</svg>
