<?xml version="1.0" encoding="UTF-8"?>
<!DOCTYPE svg PUBLIC "-//W3C//DTD SVG 1.1//EN" "http://www.w3.org/Graphics/SVG/1.1/DTD/svg11.dtd">
<!-- Creator: CorelDRAW 2017 -->
<svg xmlns="http://www.w3.org/2000/svg" xml:space="preserve" width="71px" height="71px" version="1.1" style="shape-rendering:geometricPrecision; text-rendering:geometricPrecision; image-rendering:optimizeQuality; fill-rule:evenodd; clip-rule:evenodd"
viewBox="0 0 5.22 5.22"
 xmlns:xlink="http://www.w3.org/1999/xlink">
 <defs>
  <style type="text/css">
   <![CDATA[
    .fil0 {fill:#A71C49}
   ]]>
  </style>
 </defs>
 <g id="Слой_x0020_1">
  <metadata id="CorelCorpID_0Corel-Layer"/>
  <path class="fil0" d="M3.39 1.39l-1.56 0c-0.24,0 -0.45,0.2 -0.45,0.45l0 1.56c0,0.25 0.21,0.45 0.45,0.45l1.56 0c0.25,0 0.45,-0.2 0.45,-0.45l0 -1.56c0,-0.25 -0.2,-0.45 -0.45,-0.45zm-0.78 -1.39c-1.44,0 -2.61,1.17 -2.61,2.61 0,1.44 1.17,2.61 2.61,2.61 1.44,0 2.61,-1.17 2.61,-2.61 0,-1.44 -1.17,-2.61 -2.61,-2.61zm1.57 3.4c0,0.44 -0.35,0.79 -0.79,0.79l-1.56 0c-0.43,0 -0.79,-0.35 -0.79,-0.79l0 -1.56c0,-0.44 0.36,-0.79 0.79,-0.79l1.56 0c0.44,0 0.79,0.35 0.79,0.79l0 1.56zm-1.57 -1.25c-0.26,0 -0.46,0.21 -0.46,0.47 0,0.26 0.2,0.47 0.46,0.47 0.26,0 0.47,-0.21 0.47,-0.47 0,-0.26 -0.21,-0.47 -0.47,-0.47zm0 1.28c-0.44,0 -0.81,-0.36 -0.81,-0.81 0,-0.45 0.37,-0.81 0.81,-0.81 0.45,0 0.81,0.36 0.81,0.81 0,0.45 -0.36,0.81 -0.81,0.81zm0.84 -1.45c-0.11,0 -0.19,-0.09 -0.19,-0.19 0,-0.11 0.08,-0.2 0.19,-0.2 0.1,0 0.19,0.09 0.19,0.2 0,0.1 -0.09,0.19 -0.19,0.19z"/>
 </g>
</svg>
