<?xml version="1.0" encoding="UTF-8"?>
<!DOCTYPE svg PUBLIC "-//W3C//DTD SVG 1.1//EN" "http://www.w3.org/Graphics/SVG/1.1/DTD/svg11.dtd">
<!-- Creator: CorelDRAW 2017 -->
<svg xmlns="http://www.w3.org/2000/svg" xml:space="preserve" width="42px" height="40px" version="1.1" style="shape-rendering:geometricPrecision; text-rendering:geometricPrecision; image-rendering:optimizeQuality; fill-rule:evenodd; clip-rule:evenodd"
viewBox="0 0 88.4 84.64"
 xmlns:xlink="http://www.w3.org/1999/xlink">
 <defs>
  <style type="text/css">
   <![CDATA[
    .fil0 {fill:#0096DB}
   ]]>
  </style>
 </defs>
 <g id="Слой_x0020_1">
  <metadata id="CorelCorpID_0Corel-Layer"/>
  <path class="fil0" d="M17.06 83.53l0 0c-2.59,-1.88 -3.17,-5.53 -1.29,-8.12l12.71 -17.49c1.88,-2.59 5.54,-3.17 8.12,-1.28l0 -0.01c2.59,1.88 3.17,5.54 1.29,8.12l-12.71 17.5c-1.88,2.59 -5.53,3.16 -8.12,1.28zm54.28 0l0 0c-2.59,1.88 -6.24,1.3 -8.12,-1.28l-12.71 -17.5c-1.88,-2.58 -1.3,-6.24 1.29,-8.12l0 0c2.58,-1.88 6.24,-1.3 8.12,1.29l12.7 17.49c1.89,2.58 1.31,6.24 -1.28,8.12zm16.78 -51.62l0 0c0.98,3.04 -0.7,6.33 -3.74,7.33l-20.56 6.67c-3.04,1 -6.34,-0.69 -7.33,-3.73l0 0c-0.99,-3.04 0.69,-6.34 3.73,-7.32l20.57 -6.69c3.04,-0.98 6.34,0.7 7.33,3.74zm-43.92 -31.91l0 0c3.2,0 5.82,2.62 5.82,5.82l0 21.62c0,3.2 -2.62,5.81 -5.82,5.81l0 0c-3.2,0 -5.82,-2.61 -5.82,-5.81l0 -21.62c0,-3.2 2.62,-5.82 5.82,-5.82zm-43.91 31.91l0 0c0.98,-3.04 4.28,-4.72 7.33,-3.74l20.55 6.69c3.05,0.98 4.73,4.28 3.74,7.32l0 0c-0.99,3.04 -4.29,4.73 -7.33,3.74l-20.56 -6.68c-3.04,-0.99 -4.72,-4.29 -3.73,-7.33z"/>
 </g>
</svg>
