<?xml version="1.0" encoding="UTF-8"?>
<!DOCTYPE svg PUBLIC "-//W3C//DTD SVG 1.1//EN" "http://www.w3.org/Graphics/SVG/1.1/DTD/svg11.dtd">
<!-- Creator: CorelDRAW X6 -->
<svg xmlns="http://www.w3.org/2000/svg" xml:space="preserve" width="291px" height="291px" version="1.1" style="shape-rendering:geometricPrecision; text-rendering:geometricPrecision; image-rendering:optimizeQuality; fill-rule:evenodd; clip-rule:evenodd"
viewBox="0 0 43 43"
 xmlns:xlink="http://www.w3.org/1999/xlink">
 <defs>
  <style type="text/css">
   <![CDATA[
    .str0 {stroke:white;stroke-width:0.134275;stroke-linejoin:bevel}
    .fil0 {fill:none;fill-rule:nonzero}
    .fil1 {fill:#2957A4;fill-rule:nonzero}
    .fil2 {fill:#FFCC29;fill-rule:nonzero}
   ]]>
  </style>
 </defs>
 <g id="Layer_x0020_1">
  <metadata id="CorelCorpID_0Corel-Layer"/>
  <g id="_918138496">
   <path class="fil0 str0" d="M0 22c0,12 10,22 22,22 12,0 22,-10 22,-22 0,-12 -10,-22 -22,-22 -12,0 -22,10 -22,22z"/>
  </g>
  <path class="fil1" d="M22 0l0 0c12,0 22,10 22,22 0,12 -10,22 -22,22 -12,0 -22,-10 -22,-22 0,-12 10,-22 22,-22z"/>
  <path class="fil2" d="M4 22c0,-10 8,-18 18,-18 10,0 18,8 18,18 0,10 -8,18 -18,18 -2,0 -4,0 -6,-1 1,-7 6,-13 12,-16 1,1 2,1 3,1 2,0 4,-2 4,-4 0,-2 -2,-4 -4,-4 -2,0 -4,2 -4,4 -8,2 -14,8 -18,15 -1,-1 -2,-2 -3,-3 0,-7 4,-13 9,-16 1,1 2,1 3,1 2,0 4,-2 4,-4 0,-2 -2,-4 -4,-4 -2,0 -4,2 -4,4 0,0 0,0 0,0 -5,2 -9,5 -11,9 0,0 0,0 0,-1z"/>
 </g>
</svg>
