<?xml version="1.0" encoding="UTF-8"?>
<!DOCTYPE svg PUBLIC "-//W3C//DTD SVG 1.1//EN" "http://www.w3.org/Graphics/SVG/1.1/DTD/svg11.dtd">
<!-- Creator: CorelDRAW 2017 -->
<svg xmlns="http://www.w3.org/2000/svg" xml:space="preserve" width="53px" height="53px" version="1.1" style="shape-rendering:geometricPrecision; text-rendering:geometricPrecision; image-rendering:optimizeQuality; fill-rule:evenodd; clip-rule:evenodd"
viewBox="0 0 3.41 3.41"
 xmlns:xlink="http://www.w3.org/1999/xlink">
 <defs>
  <style type="text/css">
   <![CDATA[
    .fil0 {fill:#a71c49}
   ]]>
  </style>
 </defs>
 <g id="Слой_x0020_1">
  <metadata id="CorelCorpID_0Corel-Layer"/>
  <g id="_2196466438592">
   <path class="fil0" d="M1.29 1.01c-0.02,0.01 -0.03,0.02 -0.03,0.03 0.01,-0.01 0.03,-0.03 0.03,-0.03z"/>
   <path class="fil0" d="M1.88 1.12c0.04,0.05 0.06,0.12 0.06,0.19 0,0.06 -0.01,0.11 -0.04,0.16 -0.02,0.02 -0.04,0.05 -0.07,0.08l-0.09 0.09c-0.08,0.08 -0.14,0.16 -0.17,0.22 -0.02,0.07 -0.04,0.16 -0.04,0.27l0.21 0c0,-0.1 0.01,-0.17 0.03,-0.22 0.02,-0.05 0.07,-0.11 0.14,-0.18 0.1,-0.1 0.17,-0.17 0.2,-0.22 0.03,-0.05 0.05,-0.11 0.05,-0.2 0,-0.13 -0.05,-0.24 -0.14,-0.32 -0.08,-0.09 -0.2,-0.13 -0.35,-0.13 -0.16,0 -0.29,0.05 -0.38,0.15 -0.1,0.1 -0.14,0.23 -0.14,0.39l0.2 0c0,-0.09 0.02,-0.17 0.05,-0.22 0.04,-0.1 0.13,-0.14 0.26,-0.14 0.1,0 0.17,0.03 0.22,0.08z"/>
   <path class="fil0" d="M3.41 1.71c0,-0.95 -0.76,-1.71 -1.7,-1.71 -0.95,0 -1.71,0.76 -1.71,1.71 0,0.94 0.76,1.7 1.71,1.7 0.94,0 1.7,-0.76 1.7,-1.7zm-3.25 0c0,-0.86 0.69,-1.55 1.55,-1.55 0.85,0 1.55,0.69 1.55,1.55 0,0.85 -0.7,1.55 -1.55,1.55 -0.86,0 -1.55,-0.7 -1.55,-1.55z"/>
   <polygon class="fil0" points="1.53,2.31 1.76,2.31 1.76,2.55 1.53,2.55 "/>
  </g>
 </g>
</svg>
