<?xml version="1.0" encoding="UTF-8"?>
<!DOCTYPE svg PUBLIC "-//W3C//DTD SVG 1.1//EN" "http://www.w3.org/Graphics/SVG/1.1/DTD/svg11.dtd">
<!-- Creator: CorelDRAW 2017 -->
<svg xmlns="http://www.w3.org/2000/svg" xml:space="preserve" width="71px" height="71px" version="1.1" style="shape-rendering:geometricPrecision; text-rendering:geometricPrecision; image-rendering:optimizeQuality; fill-rule:evenodd; clip-rule:evenodd"
viewBox="0 0 8.54 8.54"
 xmlns:xlink="http://www.w3.org/1999/xlink">
 <defs>
  <style type="text/css">
   <![CDATA[
    .fil0 {fill:#A71C49}
   ]]>
  </style>
 </defs>
 <g id="Слой_x0020_1">
  <metadata id="CorelCorpID_0Corel-Layer"/>
  <path class="fil0" d="M8.54 4.27c0,2.36 -1.91,4.27 -4.27,4.27 -2.36,0 -4.27,-1.91 -4.27,-4.27 0,-2.36 1.91,-4.27 4.27,-4.27 2.36,0 4.27,1.91 4.27,4.27zm-4.43 1.88l0.34 0c0,0 0.1,-0.02 0.15,-0.07 0.05,-0.05 0.04,-0.15 0.04,-0.15 0,0 0,-0.45 0.21,-0.51 0.2,-0.07 0.47,0.43 0.75,0.62 0.21,0.15 0.37,0.12 0.37,0.12l0.75 -0.01c0,0 0.39,-0.03 0.2,-0.34 -0.01,-0.02 -0.1,-0.22 -0.55,-0.64 -0.47,-0.44 -0.41,-0.37 0.16,-1.12 0.34,-0.46 0.48,-0.74 0.44,-0.86 -0.04,-0.12 -0.3,-0.08 -0.3,-0.08l-0.84 0c0,0 -0.06,-0.01 -0.11,0.02 -0.05,0.03 -0.07,0.09 -0.07,0.09 0,0 -0.14,0.36 -0.32,0.66 -0.37,0.64 -0.52,0.67 -0.58,0.63 -0.15,-0.09 -0.11,-0.37 -0.11,-0.57 0,-0.62 0.09,-0.87 -0.18,-0.94 -0.09,-0.02 -0.16,-0.04 -0.4,-0.04 -0.3,0 -0.55,0 -0.7,0.07 -0.09,0.05 -0.17,0.15 -0.12,0.16 0.05,0.01 0.18,0.03 0.25,0.12 0.08,0.12 0.08,0.39 0.08,0.39 0,0 0.05,0.72 -0.12,0.81 -0.11,0.07 -0.26,-0.06 -0.6,-0.64 -0.17,-0.3 -0.3,-0.62 -0.3,-0.62 0,0 -0.03,-0.06 -0.07,-0.1 -0.05,-0.04 -0.13,-0.05 -0.13,-0.05l-0.8 0.01c0,0 -0.12,0 -0.17,0.05 -0.03,0.05 0,0.14 0,0.14 0,0 0.63,1.47 1.34,2.21 0.65,0.68 1.39,0.64 1.39,0.64z"/>
 </g>
</svg>
